HIERARCHY
ROOT hip
{
  OFFSET 5.51535 103.731 -2.80141
  CHANNELS 6 Xposition Yposition Zposition Zrotation Xrotation Yrotation
  JOINT abdomen
  {
    OFFSET 0 -1.186 -1.5018
    CHANNELS 6 Xposition Yposition Zposition Zrotation Xrotation Yrotation
    JOINT abdomen2
    {
      OFFSET 0 9.964 0.2134
      CHANNELS 6 Xposition Yposition Zposition Zrotation Xrotation Yrotation
      JOINT chest
      {
        OFFSET 0 13.134 -3.2573
        CHANNELS 6 Xposition Yposition Zposition Zrotation Xrotation Yrotation
        JOINT neck
        {
          OFFSET 0 20.686 -1.6905
          CHANNELS 6 Xposition Yposition Zposition Zrotation Xrotation Yrotation
          JOINT head
          {
            OFFSET 0 7.23801 -0.1237
            CHANNELS 6 Xposition Yposition Zposition Zrotation Xrotation Yrotation
            End Site
            {
              OFFSET 0 0 0
            }
          }
        }
        JOINT lCollar
        {
          OFFSET 1.7069 20.075 5.0056
          CHANNELS 6 Xposition Yposition Zposition Zrotation Xrotation Yrotation
          JOINT lShldr
          {
            OFFSET 13.6458 -0.0470195 -4.849
            CHANNELS 6 Xposition Yposition Zposition Zrotation Xrotation Yrotation
            JOINT lForeArm
            {
              OFFSET 28.3255 -0.97589 2.2888
              CHANNELS 6 Xposition Yposition Zposition Zrotation Xrotation Yrotation
              JOINT lHand
              {
                OFFSET 22.1583 -0.529998 10.8316
                CHANNELS 6 Xposition Yposition Zposition Zrotation Xrotation Yrotation
                JOINT lThumb1
                {
                  OFFSET 0.786 0.111997 2.5817
                  CHANNELS 6 Xposition Yposition Zposition Zrotation Xrotation Yrotation
                  JOINT lThumb2
                  {
                    OFFSET 0.360097 -0.877999 4.2331
                    CHANNELS 6 Xposition Yposition Zposition Zrotation Xrotation Yrotation
                    JOINT lThumb2_End
                    {
                      OFFSET 1.8127 -1.21601 2.2227
                      CHANNELS 6 Xposition Yposition Zposition Zrotation Xrotation Yrotation
                      End Site
                      {
                        OFFSET 0.0180981 -0.012195 0.0222007
                      }
                    }
                  }
                }
                JOINT lCarpal1
                {
                  OFFSET 0.9571 1.114 1.7695
                  CHANNELS 6 Xposition Yposition Zposition Zrotation Xrotation Yrotation
                  JOINT lIndex1
                  {
                    OFFSET 4.12461 0.486992 4.1451
                    CHANNELS 6 Xposition Yposition Zposition Zrotation Xrotation Yrotation
                    JOINT lIndex2
                    {
                      OFFSET 3.4052 -1.45401 2.7682
                      CHANNELS 6 Xposition Yposition Zposition Zrotation Xrotation Yrotation
                      JOINT lIndex2_End
                      {
                        OFFSET 1.45309 -1.79499 1.2713
                        CHANNELS 6 Xposition Yposition Zposition Zrotation Xrotation Yrotation
                        End Site
                        {
                          OFFSET 0.0144979 -0.0179083 0.0126995
                        }
                      }
                    }
                  }
                  JOINT lMid1
                  {
                    OFFSET 5.6954 0.209987 2.1184
                    CHANNELS 6 Xposition Yposition Zposition Zrotation Xrotation Yrotation
                    JOINT lMid2
                    {
                      OFFSET 3.9766 -1.53999 2.3863
                      CHANNELS 6 Xposition Yposition Zposition Zrotation Xrotation Yrotation
                      JOINT lMid2_End
                      {
                        OFFSET 1.4042 -1.926 1.125
                        CHANNELS 6 Xposition Yposition Zposition Zrotation Xrotation Yrotation
                        End Site
                        {
                          OFFSET 0.013999 -0.0193044 0.011301
                        }
                      }
                    }
                  }
                }
                JOINT lCarpal2
                {
                  OFFSET 2.0956 0.66 -0.3894
                  CHANNELS 6 Xposition Yposition Zposition Zrotation Xrotation Yrotation
                  JOINT lRing1
                  {
                    OFFSET 5.0395 -0.090013 2.4971
                    CHANNELS 6 Xposition Yposition Zposition Zrotation Xrotation Yrotation
                    JOINT lRing2
                    {
                      OFFSET 3.7921 -1.55199 1.4806
                      CHANNELS 6 Xposition Yposition Zposition Zrotation Xrotation Yrotation
                      JOINT lRing2_End
                      {
                        OFFSET 1.4655 -1.808 0.9609
                        CHANNELS 6 Xposition Yposition Zposition Zrotation Xrotation Yrotation
                        End Site
                        {
                          OFFSET 0.0147015 -0.0181014 0.00959957
                        }
                      }
                    }
                  }
                  JOINT lPinky1
                  {
                    OFFSET 4.9141 -1.269 0.3591
                    CHANNELS 6 Xposition Yposition Zposition Zrotation Xrotation Yrotation
                    JOINT lPinky2
                    {
                      OFFSET 3.1477 -1.685 0.8462
                      CHANNELS 6 Xposition Yposition Zposition Zrotation Xrotation Yrotation
                      JOINT lPinky2_End
                      {
                        OFFSET 0.805498 -1.58501 0.795499
                        CHANNELS 6 Xposition Yposition Zposition Zrotation Xrotation Yrotation
                        End Site
                        {
                          OFFSET 0.00809703 -0.0157944 0.00799848
                        }
                      }
                    }
                  }
                }
              }
            }
          }
        }
        JOINT rCollar
        {
          OFFSET -1.7069 20.075 5.0056
          CHANNELS 6 Xposition Yposition Zposition Zrotation Xrotation Yrotation
          JOINT rShldr
          {
            OFFSET -13.6458 -0.0470107 -4.849
            CHANNELS 6 Xposition Yposition Zposition Zrotation Xrotation Yrotation
            JOINT rForeArm
            {
              OFFSET -28.3255 -0.975895 2.2888
              CHANNELS 6 Xposition Yposition Zposition Zrotation Xrotation Yrotation
              JOINT rHand
              {
                OFFSET -22.1583 -0.530007 10.8316
                CHANNELS 6 Xposition Yposition Zposition Zrotation Xrotation Yrotation
                JOINT rThumb1
                {
                  OFFSET -0.785997 0.112005 2.5817
                  CHANNELS 6 Xposition Yposition Zposition Zrotation Xrotation Yrotation
                  JOINT rThumb2
                  {
                    OFFSET -0.360106 -0.877994 4.2331
                    CHANNELS 6 Xposition Yposition Zposition Zrotation Xrotation Yrotation
                    JOINT rThumb2_End
                    {
                      OFFSET -1.8127 -1.216 2.2227
                      CHANNELS 6 Xposition Yposition Zposition Zrotation Xrotation Yrotation
                      End Site
                      {
                        OFFSET -0.0180972 -0.0121973 0.0222005
                      }
                    }
                  }
                }
                JOINT rCarpal1
                {
                  OFFSET -0.9571 1.114 1.7695
                  CHANNELS 6 Xposition Yposition Zposition Zrotation Xrotation Yrotation
                  JOINT rIndex1
                  {
                    OFFSET -4.1246 0.487011 4.1451
                    CHANNELS 6 Xposition Yposition Zposition Zrotation Xrotation Yrotation
                    JOINT rIndex2
                    {
                      OFFSET -3.4052 -1.45401 2.7682
                      CHANNELS 6 Xposition Yposition Zposition Zrotation Xrotation Yrotation
                      JOINT rIndex2_End
                      {
                        OFFSET -1.4531 -1.795 1.2713
                        CHANNELS 6 Xposition Yposition Zposition Zrotation Xrotation Yrotation
                        End Site
                        {
                          OFFSET -0.0145077 -0.0180048 0.0127017
                        }
                      }
                    }
                  }
                  JOINT rMid1
                  {
                    OFFSET -5.6954 0.210002 2.1184
                    CHANNELS 6 Xposition Yposition Zposition Zrotation Xrotation Yrotation
                    JOINT rMid2
                    {
                      OFFSET -3.9766 -1.54 2.3863
                      CHANNELS 6 Xposition Yposition Zposition Zrotation Xrotation Yrotation
                      JOINT rMid2_End
                      {
                        OFFSET -1.4042 -1.926 1.125
                        CHANNELS 6 Xposition Yposition Zposition Zrotation Xrotation Yrotation
                        End Site
                        {
                          OFFSET -0.0139948 -0.0192916 0.0112994
                        }
                      }
                    }
                  }
                }
                JOINT rCarpal2
                {
                  OFFSET -2.0956 0.66 -0.3894
                  CHANNELS 6 Xposition Yposition Zposition Zrotation Xrotation Yrotation
                  JOINT rRing1
                  {
                    OFFSET -5.03951 -0.0899879 2.4971
                    CHANNELS 6 Xposition Yposition Zposition Zrotation Xrotation Yrotation
                    JOINT rRing2
                    {
                      OFFSET -3.7921 -1.55201 1.4806
                      CHANNELS 6 Xposition Yposition Zposition Zrotation Xrotation Yrotation
                      JOINT rRing2_End
                      {
                        OFFSET -1.4655 -1.808 0.960901
                        CHANNELS 6 Xposition Yposition Zposition Zrotation Xrotation Yrotation
                        End Site
                        {
                          OFFSET -0.0146934 -0.0180999 0.00959832
                        }
                      }
                    }
                  }
                  JOINT rPinky1
                  {
                    OFFSET -4.91411 -1.26899 0.359202
                    CHANNELS 6 Xposition Yposition Zposition Zrotation Xrotation Yrotation
                    JOINT rPinky2
                    {
                      OFFSET -3.14769 -1.68501 0.846199
                      CHANNELS 6 Xposition Yposition Zposition Zrotation Xrotation Yrotation
                      JOINT rPinky2_End
                      {
                        OFFSET -0.805498 -1.585 0.7955
                        CHANNELS 6 Xposition Yposition Zposition Zrotation Xrotation Yrotation
                        End Site
                        {
                          OFFSET -0.00810035 -0.0158035 0.00800029
                        }
                      }
                    }
                  }
                }
              }
            }
          }
        }
      }
    }
  }
  JOINT lThigh
  {
    OFFSET 8.367 -8.2066 0.5982
    CHANNELS 6 Xposition Yposition Zposition Zrotation Xrotation Yrotation
    JOINT lShin
    {
      OFFSET 2.1923 -43.463 -0.4932
      CHANNELS 6 Xposition Yposition Zposition Zrotation Xrotation Yrotation
      JOINT lFoot
      {
        OFFSET 0.733301 -45.8593 -2.6451
        CHANNELS 6 Xposition Yposition Zposition Zrotation Xrotation Yrotation
        End Site
        {
          OFFSET 2.6618 -4.2699 12.3931
        }
      }
    }
  }
  JOINT rThigh
  {
    OFFSET -8.367 -8.2066 0.5982
    CHANNELS 6 Xposition Yposition Zposition Zrotation Xrotation Yrotation
    JOINT rShin
    {
      OFFSET -2.1923 -43.463 -0.4931
      CHANNELS 6 Xposition Yposition Zposition Zrotation Xrotation Yrotation
      JOINT rFoot
      {
        OFFSET -0.733299 -45.8593 -2.6451
        CHANNELS 6 Xposition Yposition Zposition Zrotation Xrotation Yrotation
        End Site
        {
          OFFSET -2.6618 -4.2699 12.3931
        }
      }
    }
  }
}
MOTION
Frames:	4
Frame Time:	0.0333333
1.32511 70.6353 -3.16818 -3.33875 6.55382 -4.32422 -3.62196e-007 -1.18599 -1.5018 2.55281 3.31103 -2.24832 -4.15109e-008 9.964 0.2134 5.24676 6.51576 -4.65372 -2.07688e-007 13.134 -3.2573 5.24676 6.51576 -4.65372 -8.30725e-006 20.686 -1.69051 4.77815 -3.18601 -28.9336 -2.9139e-006 7.23804 -0.123695 10.5407 0.141049 -26.1817 1.7069 20.075 5.0056 9.62098 -1.86339 6.2552 13.6458 -0.0470079 -4.849 -47.7366 -10.2124 54.1319 28.3255 -0.975893 2.2888 -31.2465 20.8458 -95.0826 22.1583 -0.529986 10.8316 9.35197 38.037 -20.613 0.786003 0.111997 2.5817 -8.38653 1.76871 4.89215 0.360099 -0.878001 4.2331 3.61845 0.650227 6.67805 1.8127 -1.21601 2.2227 7.50405 1.85231 14.0024 0.9571 1.114 1.7695 -6.36111e-015 -1.59028e-015 6.36111e-015 4.1246 0.486995 4.1451 0.0633959 17.7802 10.3297 3.4052 -1.45401 2.7682 3.96498 -1.82404 -1.5689 1.4531 -1.79499 1.2713 -1.40076 0.612679 0.578967 5.6954 0.209986 2.1184 11.7511 5.36125 0.914538 3.9766 -1.53999 2.3863 -12.5022 5.42187 5.69525 1.4042 -1.92599 1.125 -13.2985 5.71577 6.08765 2.0956 0.66 -0.3894 -6.36111e-015 -1.59028e-015 6.36111e-015 5.0395 -0.0900145 2.4971 6.41002 -2.88406 5.26592 3.7921 -1.55199 1.4806 -9.62929 4.62506 4.87794 1.4655 -1.808 0.960901 -11.347 5.34165 5.80509 4.9141 -1.269 0.359102 7.90657 -3.61196 19.5069 3.1477 -1.68501 0.846201 -8.86099 4.61954 4.42755 0.805498 -1.585 0.795499 -14.0817 6.92002 7.264 -1.7069 20.075 5.0056 -15.5865 -0.14161 4.07727 -13.6458 -0.0470155 -4.849 40.8619 -16.8877 -11.948 -28.3255 -0.975898 2.2888 27.9828 24.3414 89.6066 -22.1583 -0.530013 10.8316 -67.923 42.421 41.7215 -0.786 0.112001 2.5817 12.2514 -14.8579 -17.9717 -0.360106 -0.877994 4.2331 -2.96388 3.04173 -9.68685 -1.81269 -1.216 2.2227 -4.93269 5.78292 -17.2848 -0.9571 1.114 1.7695 -1.59028e-015 -1.59028e-015 3.18055e-015 -4.12461 0.48701 4.1451 29.2898 19.337 -10.9116 -3.4052 -1.45401 2.7682 17.7434 5.39561 -3.33076 -1.4531 -1.795 1.2713 23.8178 6.94599 -4.81568 -5.69541 0.210005 2.1184 13.2161 12.4729 -2.28535 -3.9766 -1.54 2.3863 29.9052 9.50919 -6.66649 -1.4042 -1.926 1.125 5.73674 2.11052 -0.892764 -2.0956 0.66 -0.3894 -1.59028e-015 -1.59028e-015 3.18055e-015 -5.03951 -0.0899904 2.4971 16.7666 4.39385 -11.1325 -3.7921 -1.55201 1.4806 26.6802 9.35937 -7.01353 -1.4655 -1.808 0.9609 3.94443 1.60769 -0.766029 -4.91411 -1.26899 0.359203 18.9624 0.606327 -24.419 -3.14769 -1.68501 0.846199 25.7173 9.89708 -6.55134 -0.8055 -1.585 0.795501 6.9348 3.0009 -1.34128 8.367 -8.2066 0.598202 -72.8803 -78.8902 -85.3936 2.1923 -43.463 -0.493147 -151.701 82.063 162.617 0.733301 -45.8593 -2.64511 -6.70289 6.46125 1.7985 -8.36701 -8.20659 0.598201 37.179 -84.1496 34.1497 -2.19107 -43.4633 -0.476856 97.2865 74.2015 -93.6896 -0.733303 -45.8593 -2.6451 -10.0843 -5.45803 -12.4267 
1.32832 70.6438 -3.1117 -3.01697 6.89657 -4.54786 -2.05432e-007 -1.18599 -1.5018 2.63773 3.26253 -2.25294 1.39807e-008 9.964 0.2134 5.41488 6.41507 -4.66515 5.98951e-008 13.134 -3.2573 5.41488 6.41507 -4.66515 -3.01e-006 20.686 -1.69049 4.95379 -2.93366 -28.8467 -4.89928e-006 7.23803 -0.123689 10.8065 0.617888 -26.0454 1.7069 20.075 5.0056 9.47966 -1.91031 6.23515 13.6458 -0.0470097 -4.849 -47.8732 -10.0623 54.2997 28.3255 -0.975893 2.2888 -31.3811 20.4175 -94.2371 22.1583 -0.529984 10.8316 9.46555 37.4701 -21.6664 0.786005 0.111996 2.5817 -8.38654 1.76868 4.89216 0.360097 -0.877999 4.2331 3.61853 0.650314 6.67798 1.8127 -1.21601 2.2227 7.50404 1.85231 14.0024 0.9571 1.114 1.7695 -2.64834e-031 -4.77083e-015 -3.18055e-015 4.12461 0.48699 4.1451 0.0633913 17.7802 10.3298 3.4052 -1.454 2.7682 3.96497 -1.82405 -1.5689 1.4531 -1.79499 1.2713 -1.40076 0.612658 0.57898 5.6954 0.209989 2.1184 11.7512 5.36139 0.914537 3.9766 -1.53999 2.3863 -12.5022 5.42187 5.69526 1.4042 -1.926 1.125 -13.2985 5.71578 6.08764 2.0956 0.66 -0.3894 -2.64834e-031 -4.77083e-015 -3.18055e-015 5.0395 -0.0900114 2.4971 6.41002 -2.88407 5.26591 3.7921 -1.55199 1.4806 -9.62928 4.62517 4.87788 1.4655 -1.808 0.9609 -11.347 5.34158 5.80515 4.9141 -1.269 0.3591 7.90665 -3.61185 19.5068 3.1477 -1.685 0.846201 -8.86098 4.61965 4.42751 0.805496 -1.585 0.795499 -14.0817 6.92002 7.26401 -1.7069 20.075 5.0056 -15.5864 -0.141557 4.07724 -13.6458 -0.0470154 -4.849 39.9489 -17.1697 -11.6872 -28.3255 -0.975887 2.28879 28.0341 25.235 90.1074 -22.1583 -0.53 10.8316 -68.259 42.9732 41.0932 -0.786002 0.112007 2.5817 12.2514 -14.8579 -17.9717 -0.360105 -0.877997 4.2331 -2.96388 3.04173 -9.68684 -1.8127 -1.216 2.2227 -4.93268 5.78291 -17.2848 -0.9571 1.114 1.7695 3.18055e-015 7.95139e-016 -6.36111e-015 -4.12461 0.487012 4.1451 29.2898 19.337 -10.9116 -3.4052 -1.454 2.7682 17.7434 5.39562 -3.33073 -1.4531 -1.795 1.2713 23.8178 6.94599 -4.81569 -5.6954 0.209998 2.1184 13.2161 12.4729 -2.28532 -3.9766 -1.54 2.3863 29.9052 9.5092 -6.66649 -1.4042 -1.926 1.125 5.73674 2.11052 -0.892761 -2.0956 0.66 -0.3894 3.18055e-015 7.95139e-016 -6.36111e-015 -5.03951 -0.0899891 2.4971 16.7666 4.39388 -11.1325 -3.7921 -1.55201 1.4806 26.6802 9.35936 -7.01355 -1.4655 -1.808 0.960899 3.94443 1.6077 -0.766029 -4.91411 -1.26899 0.3592 18.9624 0.606338 -24.419 -3.1477 -1.68501 0.846197 25.7173 9.89708 -6.55133 -0.805499 -1.585 0.795501 6.93479 3.00092 -1.34126 8.367 -8.20659 0.598199 -73.6525 -79.4425 -86.4602 2.1923 -43.463 -0.49389 -151.358 81.9931 161.972 0.733293 -45.8593 -2.64512 -6.29644 6.46805 1.55384 -8.36701 -8.20659 0.5982 42.9171 -84.3404 39.7186 -2.19519 -43.4625 -0.525238 96.852 74.2493 -93.3442 -0.733304 -45.8594 -2.64509 -9.9591 -5.45669 -12.5146 
1.29413 70.6564 -3.01816 -2.33101 7.46978 -5.1044 1.31786e-007 -1.186 -1.5018 2.66104 3.15111 -2.2279 -5.43849e-008 9.964 0.2134 5.45494 6.19281 -4.61028 -3.46594e-007 13.134 -3.2573 5.45493 6.19281 -4.61028 -1.94608e-005 20.686 -1.69047 5.03251 -2.6435 -28.6881 -3.7883e-006 7.23803 -0.123701 10.8607 0.972621 -25.8757 1.7069 20.075 5.0056 9.333 -1.95885 6.21204 13.6458 -0.0470218 -4.84901 -47.9263 -9.92292 54.8782 28.3255 -0.975893 2.2888 -31.5301 19.9398 -93.2625 22.1583 -0.529994 10.8316 9.52336 36.8438 -23.0729 0.786004 0.111995 2.5817 -8.38657 1.76864 4.89213 0.360097 -0.877996 4.2331 3.61853 0.650319 6.67797 1.8127 -1.21601 2.2227 7.50404 1.8523 14.0024 0.9571 1.114 1.7695 -6.36111e-015 -1.59028e-015 -0 4.1246 0.486993 4.1451 0.0633768 17.7801 10.3297 3.4052 -1.454 2.7682 3.96495 -1.82409 -1.56889 1.4531 -1.79499 1.2713 -1.40077 0.612623 0.579005 5.6954 0.209986 2.1184 11.7512 5.36138 0.914524 3.9766 -1.53999 2.3863 -12.5022 5.42187 5.69526 1.4042 -1.926 1.125 -13.2985 5.71578 6.08765 2.0956 0.66 -0.3894 -6.36111e-015 -1.59028e-015 -0 5.0395 -0.0900124 2.4971 6.41 -2.88412 5.26591 3.7921 -1.55199 1.4806 -9.62927 4.62517 4.8779 1.4655 -1.808 0.960899 -11.3471 5.34172 5.8051 4.9141 -1.269 0.359102 7.90665 -3.61186 19.5068 3.1477 -1.685 0.846201 -8.86096 4.61965 4.42748 0.805497 -1.585 0.795502 -14.0817 6.92001 7.26403 -1.7069 20.075 5.0056 -15.5864 -0.141527 4.07723 -13.6458 -0.0470068 -4.849 38.8881 -17.3141 -11.4487 -28.3255 -0.975886 2.2888 28.1094 26.366 90.7606 -22.1583 -0.530004 10.8316 -68.7551 43.57 40.3988 -0.786002 0.112008 2.5817 12.2514 -14.8579 -17.9717 -0.360105 -0.877995 4.2331 -2.96388 3.04172 -9.68682 -1.81269 -1.216 2.2227 -4.93268 5.78291 -17.2848 -0.9571 1.114 1.7695 1.59028e-015 0 -0 -4.12461 0.487013 4.1451 29.2898 19.337 -10.9116 -3.4052 -1.45401 2.7682 17.7434 5.39565 -3.33074 -1.4531 -1.79499 1.2713 23.8178 6.946 -4.81569 -5.6954 0.209999 2.1184 13.2161 12.4729 -2.28535 -3.9766 -1.54 2.3863 29.9052 9.50921 -6.66648 -1.4042 -1.926 1.125 5.73674 2.11052 -0.892772 -2.0956 0.66 -0.3894 1.59028e-015 0 -0 -5.03951 -0.0899885 2.4971 16.7665 4.39394 -11.1325 -3.7921 -1.55201 1.4806 26.6802 9.35937 -7.01354 -1.4655 -1.808 0.960901 3.94443 1.6077 -0.766024 -4.91411 -1.26899 0.359199 18.9624 0.606364 -24.419 -3.1477 -1.685 0.846198 25.7173 9.89709 -6.55132 -0.8055 -1.585 0.7955 6.93477 3.00094 -1.34124 8.36702 -8.20662 0.598201 -75.9006 -80.2044 -88.8044 2.19228 -43.463 -0.493917 -151.132 81.9521 161.575 0.733299 -45.8593 -2.64511 -6.10242 6.48235 1.41926 -8.36701 -8.20662 0.598203 52.6079 -84.4385 49.3376 -2.19448 -43.4627 -0.512733 96.534 74.3008 -93.1269 -0.733306 -45.8593 -2.64512 -9.89135 -5.4535 -12.6032 
1.23385 70.6703 -2.90038 -1.38002 8.19612 -5.91009 -6.75488e-007 -1.186 -1.5018 2.63716 2.99581 -2.18075 -1.45378e-008 9.964 0.213399 5.39744 5.88571 -4.50634 1.16269e-008 13.134 -3.2573 5.39743 5.8857 -4.50633 -1.84817e-005 20.686 -1.69046 5.04086 -2.33411 -28.4753 -4.75813e-006 7.238 -0.123689 10.7578 1.23558 -25.6838 1.7069 20.075 5.0056 9.18154 -2.00888 6.1861 13.6458 -0.0470089 -4.849 -47.8973 -9.79175 55.7391 28.3255 -0.975899 2.2888 -31.6842 19.4374 -92.2006 22.1583 -0.529989 10.8316 9.52791 36.1787 -24.7006 0.786003 0.111998 2.5817 -8.38653 1.76874 4.89217 0.360096 -0.877997 4.2331 3.61851 0.650311 6.67797 1.8127 -1.21601 2.2227 7.50405 1.85229 14.0024 0.9571 1.114 1.7695 -6.36111e-015 -7.95139e-015 3.18055e-015 4.1246 0.486996 4.1451 0.0633686 17.7801 10.3297 3.4052 -1.45401 2.7682 3.96493 -1.82416 -1.5689 1.4531 -1.79499 1.2713 -1.40079 0.612536 0.579039 5.69541 0.209986 2.1184 11.7512 5.36136 0.914535 3.9766 -1.53999 2.3863 -12.5022 5.42187 5.69526 1.4042 -1.926 1.125 -13.2985 5.71578 6.08764 2.0956 0.66 -0.3894 -6.36111e-015 -7.95139e-015 3.18055e-015 5.0395 -0.0900142 2.4971 6.40998 -2.88418 5.26591 3.7921 -1.55199 1.4806 -9.62926 4.62516 4.87788 1.4655 -1.808 0.9609 -11.3471 5.34169 5.80511 4.9141 -1.269 0.359101 7.90666 -3.61187 19.5068 3.1477 -1.685 0.846199 -8.86095 4.61965 4.42748 0.805501 -1.58501 0.7955 -14.0817 6.92002 7.26401 -1.7069 20.075 5.0056 -15.5864 -0.141555 4.07722 -13.6458 -0.0470148 -4.849 37.7452 -17.3509 -11.2018 -28.3255 -0.975886 2.2888 28.2023 27.6437 91.5075 -22.1583 -0.530005 10.8316 -69.3647 44.1916 39.6683 -0.786 0.112002 2.5817 12.2514 -14.8579 -17.9717 -0.360108 -0.877993 4.2331 -2.96388 3.04173 -9.68683 -1.8127 -1.216 2.2227 -4.93269 5.78291 -17.2848 -0.9571 1.114 1.7695 -1.59028e-015 -7.95139e-016 -3.18055e-015 -4.12461 0.487011 4.1451 29.2898 19.337 -10.9115 -3.4052 -1.45401 2.7682 17.7434 5.39569 -3.33077 -1.4531 -1.795 1.2713 23.8178 6.946 -4.81568 -5.69541 0.209998 2.1184 13.2161 12.473 -2.28537 -3.9766 -1.54 2.3863 29.9052 9.50923 -6.66649 -1.4042 -1.926 1.125 5.73674 2.11052 -0.892761 -2.0956 0.66 -0.3894 -1.59028e-015 -7.95139e-016 -3.18055e-015 -5.03951 -0.0899895 2.4971 16.7666 4.39381 -11.1325 -3.7921 -1.552 1.4806 26.6802 9.35936 -7.01355 -1.4655 -1.808 0.960899 3.94442 1.60771 -0.766014 -4.91411 -1.26899 0.3592 18.9624 0.606435 -24.4191 -3.1477 -1.68501 0.846201 25.7173 9.89713 -6.55132 -0.805501 -1.585 0.795498 6.93478 3.00098 -1.34117 8.36701 -8.20661 0.598199 -79.5963 -81.0877 -92.4589 2.19228 -43.463 -0.493523 -150.992 81.9347 161.362 0.733298 -45.8593 -2.6451 -6.07137 6.50104 1.36882 -8.367 -8.20661 0.598199 65.1785 -84.2795 61.9065 -2.1923 -43.463 -0.493121 96.432 74.3478 -93.1385 -0.733292 -45.8593 -2.6451 -9.86969 -5.44798 -12.6881 
